<svg width="32" height="40" viewBox="0 0 32 40" fill="none" xmlns="http://www.w3.org/2000/svg">
<path fill-rule="evenodd" clip-rule="evenodd" d="M31.397 22.3721C32.7282 31.446 27.817 38.3164 19.1281 39.5242C19.4639 38.1328 19.9858 33.3637 19.9037 31.4832C22.3501 30.7352 26.5864 29.7897 28.0184 24.5643C24.6771 26.9329 21.7534 27.3069 19.9037 27.4939C19.7247 21.5723 18.1137 13.3339 16.2641 8.59657C17.2187 23.2553 15.7271 31.2339 15.7271 31.2339C11.1327 31.4832 6.07176 28.1173 4.98708 27.4939C6.18041 30.4859 10.5361 34.8492 15.0707 35.4102C14.7886 37.2931 14.5191 39.1838 14.213 39.9182C7.59005 39.389 1.32727 33.6571 0.309901 25.6694C-0.573877 18.7306 4.29552 11.5157 7.59005 8.59657C10.8846 5.67742 13.4001 4.05675 13.4001 0.0674501C18.6507 2.31144 29.5697 9.91605 31.397 22.3721ZM10.2086 25.1085C11.6585 25.1085 12.8339 23.8805 12.8339 22.3658C12.8339 20.8511 11.6585 19.6232 10.2086 19.6232C8.75867 19.6232 7.58327 20.8511 7.58327 22.3658C7.58327 23.8805 8.75867 25.1085 10.2086 25.1085ZM24.4431 21.3853C25.893 21.3853 27.0684 20.1574 27.0684 18.6426C27.0684 17.1279 25.893 15.9 24.4431 15.9C22.9932 15.9 21.8178 17.1279 21.8178 18.6426C21.8178 20.1574 22.9932 21.3853 24.4431 21.3853Z" fill="#1A2A6C"/>
</svg>
